<group>
loop_mode=no_loop
ampeg_release=0.250

<region>
sample=DjembeLowDoublep.An0.wav
pitch_keycenter=33
lokey=0
hikey=34
tune=0

<region>
sample=DjembeLowDoublef.Bn0.wav
pitch_keycenter=35
lokey=35
hikey=35
tune=0

<region>
sample=DjembeLowp3.Cn1.wav
pitch_keycenter=36
lokey=36
hikey=37
tune=0

<region>
sample=DjembeLowmf1.Dn1.wav
pitch_keycenter=38
lokey=38
hikey=39
tune=0

<region>
sample=DjembeLowf1.En1.wav
pitch_keycenter=40
lokey=40
hikey=40
tune=0

<region>
sample=DjembeHighp.Fn1.wav
pitch_keycenter=41
lokey=41
hikey=42
tune=0

<region>
sample=DjembeHighmf.Gn1.wav
pitch_keycenter=43
lokey=43
hikey=44
tune=0

<region>
sample=DjembeHighf.An1.wav
pitch_keycenter=45
lokey=45
hikey=47
tune=0

<region>
sample=DjembeHighDoublep.Cn2.wav
pitch_keycenter=48
lokey=48
hikey=49
tune=0

<region>
sample=DjembeHighDoublef.Dn2.wav
pitch_keycenter=50
lokey=50
hikey=127
tune=0


